<svg xmlns="http://www.w3.org/2000/svg" viewBox="0 0 132.87 158.48"><defs><style>.cls-1{isolation:isolate;}.cls-2{fill:#eef5e8;opacity:0.25;mix-blend-mode:multiply;}.cls-3{fill:#ddd;}</style></defs><title>Asset 2</title><g class="cls-1"><g id="Layer_2" data-name="Layer 2"><g id="Shadow"><path class="cls-2" d="M59.78,35.75c-12.24,5.22-21.89,15.1-30,25.66C21.93,71.63,15.24,82.69,8.56,93.71c-3.29,5.43-6.63,11-7.95,17.19-3,14,5.37,28.65,17.29,36.6s26.7,10.33,41,10.87c17.29.65,35.27-1.29,50.25-10,5.83-3.38,11.19-7.83,14.64-13.62,3.29-5.51,4.69-11.91,5.87-18.22,2.69-14.26,4.53-29,1.94-43.26C125.74,41,90.62,22.57,59.78,35.75Z"/></g><g id="Object"><path class="cls-3" d="M49.49,6.05a2.68,2.68,0,0,0-.91-.58A2.71,2.71,0,0,0,46,6.15C42.5,9,38.49,12.87,37.61,17.76l-2-.91a4.24,4.24,0,0,0-2.77-.51c-1.11.24-2.5,1.16-2.83,4.17-1.22,11.39,1.68,21.65,8,28.17a49.93,49.93,0,0,0,8.64,6.66c1,.66,2,1.32,3,2,3.89,2.7,6.78,5.31,8.28,9.26a.49.49,0,0,0,0,.11,29.29,29.29,0,0,1,1,16.39,30.39,30.39,0,0,0-3.09-3.6l-.32-.33h0c-7-7.26-14-14-23.24-16.34a1.41,1.41,0,0,0-1.32.33,1.43,1.43,0,0,0-.43,1.3c.69,3.72,3,6.76,5,9.45a73.42,73.42,0,0,0,9.85,11.29l.17.15c3.17,2.73,7.54,6,11.08,5.6a68,68,0,0,0-2.29,8.49,38.13,38.13,0,0,0,12.22,34.68c.35.31.71.6,1.07.89a1.42,1.42,0,0,0,2-.21,1.38,1.38,0,0,0-.22-2,35.23,35.23,0,0,1-12.61-23.73c3.78,1.59,10.16-2.6,12.08-4a20.88,20.88,0,0,0,8.55-13.05A1.39,1.39,0,0,0,77,90.73a1.41,1.41,0,0,0-1.41-.24l-7.4,2.81a35.42,35.42,0,0,0-9.11,4.49h0A14.54,14.54,0,0,0,57.3,99.4a76.93,76.93,0,0,1,2.32-8.31c.48-1.51,1-3,1.4-4.57a69.9,69.9,0,0,1,8.74-12.89,33.07,33.07,0,0,1,11.31-8.49c0,.22,0,.44,0,.67a31.55,31.55,0,0,0,16.61,24.9c2.89,1.49,5.4,1.53,7.06.1,1.89-1.63,2-4.44.35-7.91a49.18,49.18,0,0,0-5.18-8.52l11.21,2.48a26,26,0,0,0,4.39.72,2.62,2.62,0,0,0,3.1-2.39,12.44,12.44,0,0,0-3.28-10.37,26,26,0,0,0,8.42-9.18,1.43,1.43,0,0,0-.51-1.87,28.89,28.89,0,0,0-24.94-2.25A37.12,37.12,0,0,0,100,41c.24-5.83-1.24-9.73-4.4-11.57a1.43,1.43,0,0,0-1.32,0,1.4,1.4,0,0,0-.79,1.06,50.94,50.94,0,0,1-6.16,17.66c-.37.64-.76,1.29-1.14,1.94C84,53.67,81.82,57.4,81.87,61.75v0a34.92,34.92,0,0,0-14.23,10,58.12,58.12,0,0,0-5.19,6.87,31.4,31.4,0,0,0-1.66-12.46c.25-.78.48-1.56.69-2.35a19.39,19.39,0,0,0,8.06-5.59,42.76,42.76,0,0,0,8.9-42.84,2.53,2.53,0,0,0-4.51-1c-.2.18-.38.37-.58.56a12.76,12.76,0,0,0-.56-5,23.48,23.48,0,0,0-4.63-7.14C66,.34,64.28.64,63.42,1A4,4,0,0,0,61.84,2.5c-.41.6-.8,1.24-1.19,1.89L57,.93A2.39,2.39,0,0,0,54.18.21,2.58,2.58,0,0,0,53.3,1a14,14,0,0,0-2.58,6.13Zm17.79,96.76c-3.42,2.43-7.89,4.46-9.44,3.64a2.14,2.14,0,0,1-.49-.37A36.55,36.55,0,0,0,73.23,95.87,18.82,18.82,0,0,1,67.28,102.81ZM58,105.15l.73-.7A27.16,27.16,0,0,1,63,100.82c1.53-.95,3.14-1.84,4.7-2.69,1.8-1,3.65-2,5.42-3.17A35.82,35.82,0,0,1,58,105.15ZM69.18,96l2.6-1c-1.46.9-3,1.73-4.43,2.55s-3.18,1.75-4.72,2.72a27.36,27.36,0,0,0-4.41,3.71L57.1,105c.28-1.55,2.22-3.86,3.66-5A33.55,33.55,0,0,1,69.18,96Zm34.74-28.87c-1.11.33-2.25.62-3.43.86a9.67,9.67,0,0,1-3.2-.06c.65,0,1.29-.1,1.92-.16C100.79,67.55,102.36,67.33,103.92,67.08Zm-1.38,17c.39.8,1.55,3.51.36,4.54-1,.88-3.07,0-3.91-.47A28.65,28.65,0,0,1,83.91,65.58a5.53,5.53,0,0,1,0-.56,29.64,29.64,0,0,1,4.36,2.27l.09.08A9.22,9.22,0,0,0,90,68.49,40.91,40.91,0,0,1,102.54,84.12Zm13.26-9.36h-.12a25.57,25.57,0,0,1-3.93-.65L97,70.84a.48.48,0,0,0-.12,0l-.17-.18a12.68,12.68,0,0,0,4.33.06,40.9,40.9,0,0,0,11.81-4.35A9.47,9.47,0,0,1,115.8,74.76Zm-8-9.06c-2.85.53-5.75,1-8.67,1.31a25,25,0,0,1-5,.11A15.94,15.94,0,0,1,91.41,66l-.68-.49a35,35,0,0,0,7.78-.74A76.08,76.08,0,0,0,119,57.66,28.22,28.22,0,0,1,107.8,65.7Zm7.08-12.39a27.82,27.82,0,0,0-3.95.64,150.48,150.48,0,0,0-16.7,4.78,19.64,19.64,0,0,0,2.39-3.37l0,0A25.94,25.94,0,0,1,114.88,53.31ZM84.71,61.49h0c0-3.47,1.93-6.63,3.93-10,.39-.66.79-1.32,1.16-2a53.5,53.5,0,0,0,6-16c1,1.62,1.48,4.09,1.35,7.38a32.76,32.76,0,0,1-1.84,10.49,15.91,15.91,0,0,1-6.15,8,28.26,28.26,0,0,1-2.8,1.45c-.52.24-1,.49-1.58.76A.94.94,0,0,0,84.71,61.49Zm2.88,1.9a29.55,29.55,0,0,0,3.1-1.61,15.43,15.43,0,0,0,2.43-1.89,146.92,146.92,0,0,1,18-5.25,19,19,0,0,1,6.15-.61,25.58,25.58,0,0,1,3.35,1.47c-.18.28-.37.56-.56.83a75,75,0,0,1-21.65,7.78,31.21,31.21,0,0,1-8.86.65c-.71-.44-1.43-.87-2.16-1.25ZM53.51,81.14h0l.33.35c1,1.07,3.66,3.78,3.79,5.42a1.19,1.19,0,0,0-.06.46c-2.34,0-4.51-1.6-6.53-3.36l-.14-.12c-3.47-3-6.84-6.3-10-9.64-1-1.09-2-2.33-3-3.65a49.38,49.38,0,0,0-3.54-4.16C41.58,69.17,47.56,74.94,53.51,81.14Zm-6.06,2.08a73.66,73.66,0,0,1-9.61-11c-.85-1.13-1.74-2.33-2.52-3.59.67.79,1.33,1.61,2,2.42,1,1.27,2,2.58,3.08,3.69,3.2,3.37,6.58,6.63,10.06,9.69l.15.13c1.93,1.68,4,3.18,6.3,3.47C55.84,88.46,53.32,88.26,47.45,83.22Zm9.71-66.64a17.33,17.33,0,0,1,4.41,5c1.71,3.43.83,7.64-.33,12-.45,1.26-.85,2.55-1.19,3.84-.44-1.13-.92-2.25-1.46-3.35-.4-.81-.81-1.56-1.23-2.28-.11-4.11-1.91-8.13-3.76-11.61-.5-.94-1-1.83-1.51-2.7-1.62-2.83-3-5.32-3.59-8.53Zm18,.5c.17,2.37.25,4.76.26,7.13a55.57,55.57,0,0,1-1.23,13A37.35,37.35,0,0,1,63.62,55.67c3.45-5.54,5.58-13.43,7.09-20,.42-1.8.81-3.57,1.19-5.32,1-4.53,1.95-8.83,3.23-13.27Zm-4,13.13c-.39,1.75-.78,3.52-1.19,5.32-1.53,6.62-3.69,14.62-7.2,20.08a42.8,42.8,0,0,0-1-12.61h0a46.07,46.07,0,0,1,2.16-8.54l0,0v0A45.42,45.42,0,0,1,74.12,18.11C73,22.14,72.12,26.09,71.21,30.21ZM47.12,22.28a12.32,12.32,0,0,1-.62-3.54c-.25-3.58-.33-7,1.29-9.67.59,3.35,2.1,6,3.69,8.76.49.86,1,1.75,1.49,2.68a29,29,0,0,1,3.61,10,23.28,23.28,0,0,0-2.7-3.42A27.09,27.09,0,0,0,47.12,22.28ZM47,9.06c-1.51,2.76-1.42,6.18-1.17,9.73a15.76,15.76,0,0,0,.42,3c-1.29-.66-2.58-1.26-3.82-1.83l-2.1-1C40.66,15.05,43.87,11.68,47,9.06Zm4.31,46c-1-.7-2-1.37-3.06-2.05a46.37,46.37,0,0,1-8.16-6.26c-5.69-5.91-8.31-15.35-7.18-25.9.13-1.22.47-1.68.61-1.71a2.56,2.56,0,0,1,1,.32l6.75,3.13c3.37,1.56,6.84,3.17,9.61,5.59.36.31.7.63,1,1a23.67,23.67,0,0,1,4.2,6.21,40,40,0,0,1,2.89,27A26.88,26.88,0,0,0,51.28,55Zm16.2,1.24a19.39,19.39,0,0,1-5.25,4.17c.18-1,.32-2,.43-3A38.15,38.15,0,0,0,74.88,37.4a55.9,55.9,0,0,0,1.25-13.19c0-2.59-.13-5.19-.32-7.76h0A39.87,39.87,0,0,1,67.48,56.26ZM66,4.63a21.38,21.38,0,0,1,4.11,6.26A12.33,12.33,0,0,1,69.51,19,47.6,47.6,0,0,0,65.31,25a12.27,12.27,0,0,0-1.2-4.66A20,20,0,0,0,59,14.45l-1.5-1.32c2.21-1.57,3.59-3.93,4.92-6.23C63,6,63.56,5,64.17,4.11a2,2,0,0,1,.44-.5C64.71,3.56,65.23,3.72,66,4.63ZM53.38,9.33A11.59,11.59,0,0,1,55.21,3.1l4,3.79a11.54,11.54,0,0,1-3.86,4.29l-2-1.73S53.38,9.37,53.38,9.33Z"/></g></g></g></svg>