<svg xmlns="http://www.w3.org/2000/svg" viewBox="0 0 140.19 165.44"><defs><style>.cls-1{isolation:isolate;}.cls-2{fill:#fff0f0;opacity:0.25;mix-blend-mode:multiply;}.cls-3{fill:#ddd;}</style></defs><title>Asset 5</title><g class="cls-1"><g id="Layer_2" data-name="Layer 2"><g id="Shadow"><path class="cls-2" d="M37.71,58.85c-6.36,1-13,2.67-17.63,7.13-3.83,3.68-5.83,8.83-7.68,13.81Q7.51,92.93,2.91,106.18C1,111.75-.95,117.74.52,123.46c1.09,4.27,3.94,7.84,6.79,11.21C18,147.4,30.55,159.93,46.69,164c17.73,4.48,36.39-2.15,52.44-10.93,13.62-7.45,26.74-16.93,34.58-30.33s9.3-31.41.28-44C113.14,49.5,68.26,53.89,37.71,58.85Z"/></g><g id="Object"><path class="cls-3" d="M83.84,118.22c0-.29,0-.59,0-.88A104.62,104.62,0,0,0,84,88.89C83.32,83,82.21,77.18,80.92,71.4a48.91,48.91,0,0,1,7.55-16.35c2.31.08,4.71,0,7.06-.16a7.21,7.21,0,0,0,.38,3.24c1,3.61,2.36,7.74,5.36,11h0a1.94,1.94,0,0,0,1,.64,1.73,1.73,0,0,0,.68,0,2.07,2.07,0,0,0,1.56-1.67,10.87,10.87,0,0,0-.1-4.09,19.3,19.3,0,0,0-1.1-4.52,15.16,15.16,0,0,0-3.27-4.85c1.41,0,2.79-.05,4.12,0h.07a3.75,3.75,0,0,0,1.11,1.71c2.16,2.05,6.43,1.77,9.25,1.58l.92,0a10.39,10.39,0,0,0,1.22-.12,4.14,4.14,0,0,0,1.47-.55,2.85,2.85,0,0,0,1.17-3.64,3.48,3.48,0,0,0-1.17-1.21,11.08,11.08,0,0,0-5-2.33,10.69,10.69,0,0,0-3,.21l.26,1.4-.39-1.37c-1.81.34-3.86.79-5,1.83a1.4,1.4,0,0,0-.74-.28,76.84,76.84,0,0,0-8.43.16c-1.77.1-3.58.19-5.34.21a48.79,48.79,0,0,1,9-8.49,6,6,0,0,0,3.9.45,10.82,10.82,0,0,0,2.47-.81A12,12,0,0,0,111,38.66a15.64,15.64,0,0,0,.37-15.46,4.85,4.85,0,0,0-2.51-2.43,4.73,4.73,0,0,0-3.26.24,14.29,14.29,0,0,0-8.26,9.88c-.62,2.43-1.21,7.37.33,10.75A51.4,51.4,0,0,0,86.48,53l0,0A52.52,52.52,0,0,0,79.64,65.9c-1.3-5.33-2.71-10.6-4.11-15.8-1.77-6.55-3.57-13.3-5.1-20a2.65,2.65,0,0,0,.3.06c9,1.08,15-10.95,16.89-17.45a10.53,10.53,0,0,0,.55-4.41,5,5,0,0,0-3.09-4.14L84.58,4c-.09,0-.22-.06-.27,0V3.72a4.58,4.58,0,0,0,0-.83A3.69,3.69,0,0,0,80.49,0a6.87,6.87,0,0,0-3.65,1.42,23.9,23.9,0,0,0-9.17,12.26,23.75,23.75,0,0,0-.91,10.1c-.27-.36-.55-.71-.8-1.05a25.15,25.15,0,0,0-2.08-2.53,40.45,40.45,0,0,0-11.16-8.28,13.12,13.12,0,0,0-5.45-1.51,6.58,6.58,0,0,0-5.59,2.75,7,7,0,0,0-.42,6.17A15.77,15.77,0,0,0,46,25.75a33.48,33.48,0,0,0,12.38,7,13.06,13.06,0,0,0,6.11.65,7,7,0,0,0,1-.25,6.74,6.74,0,0,0,2.47-1.35c1.5,6.41,3.21,12.81,4.88,19,3.37,12.49,6.84,25.4,8.44,38.39a108.14,108.14,0,0,1,.7,19.11,33.25,33.25,0,0,0-8.26-11.27A66.93,66.93,0,0,0,65,90.52c1.16-.64,2.29-2.14,3.58-4.18a36.44,36.44,0,0,0,3.05-6.4c.36-.92,1.21-3.07,0-4.78a2.61,2.61,0,0,0-1.5-1C69,73.85,68,74.34,67,75.56h0a26.74,26.74,0,0,0-5.18,9.55l-.07.28a9.79,9.79,0,0,0-.45,2.77l-1.2-.74q-2-1.26-4-2.55a6.4,6.4,0,0,0,1.4-1.65,8.76,8.76,0,0,0,1.39-4.16A14.31,14.31,0,0,0,57.33,72a27.3,27.3,0,0,0-6.13-8.57c-1.58-1.49-3.33-1.83-4.6-.87a3.42,3.42,0,0,0-1.11,1.69,15.74,15.74,0,0,0,.94,11.89c.33.71.87,1.8,1.57,3A62.3,62.3,0,0,0,35.42,73a20,20,0,0,0-7.63-1.4,9.06,9.06,0,0,0-7.27,4c-1.85,3-1.35,7.21,1.23,10.27,1.91,2.27,4.75,3.88,8.68,4.94a34.35,34.35,0,0,0,14,.77l.78-.13A16.2,16.2,0,0,0,51.9,88.8a7.53,7.53,0,0,0,2-2c1.55,1,3.13,2,4.71,3a105.39,105.39,0,0,1,11,7.52c-6.5-.28-13.1,1.74-18.94,3.91-3.55-.9-8.56,2.51-11,4.14l-.2.13h0a15.5,15.5,0,0,0-5.19,5.33,8.94,8.94,0,0,0-.44,8c1.67,3.44,5.6,4.69,8.85,4.09a7.32,7.32,0,0,0,1-.26c3.78-1.24,6.19-4.56,7.55-7.12,2-3.87,3.93-9,2-12.3.91-.32,1.83-.63,2.76-.92a6.93,6.93,0,0,0-.27,1,18.5,18.5,0,0,0-.13,5.89c.41,3.54,1.6,5.81,3.65,6.93a3.55,3.55,0,0,0,2.32.45,2.7,2.7,0,0,0,1-.44,3.4,3.4,0,0,0,1-1.3,14.2,14.2,0,0,0,1-9.9,14.76,14.76,0,0,0-1.88-4.34,27,27,0,0,1,10.45,0c4.92,5.06,7.67,10.92,7.72,16.45-1.87,12.15-6.2,22.72-12.86,30.92a1.41,1.41,0,0,0,1.35,2.29,1.47,1.47,0,0,0,.85-.5c6.73-8.29,11.2-18.86,13.26-31A1.47,1.47,0,0,0,83.84,118.22Zm19.54-51-1.07.94,1-1Zm-2.63-6.64a17.16,17.16,0,0,1,.92,3.88c0,.22.07.44.11.67a27.7,27.7,0,0,1-3.14-7.77c0-.06,0-.15-.07-.26A12.83,12.83,0,0,1,100.75,60.61Zm7.85-23.43a9.45,9.45,0,0,1-3.86,3.65,8,8,0,0,1-2.35.66,22.13,22.13,0,0,0,5.25-9,40.45,40.45,0,0,0,1.65-7A13,13,0,0,1,108.6,37.18Zm-8.5-5.6h0a11.36,11.36,0,0,1,6.53-7.92,3.81,3.81,0,0,1,.72-.22,1.26,1.26,0,0,1,.59,0,2,2,0,0,1,.78.81,40.34,40.34,0,0,1-1.76,8,20.7,20.7,0,0,1-5.55,9.2,1.55,1.55,0,0,1-1.1-.84C99.22,38.41,99.38,34.41,100.1,31.58ZM112.93,52.9a8.79,8.79,0,0,1,3.71,1.83c.08.06.23.17.13.12a3.15,3.15,0,0,1-1.35.25l-1,.06c-2,.13-5.86.38-7.12-.82a2,2,0,0,1-.21-.22,10.17,10.17,0,0,1,3.42-1l.07,0,.13,0A7.71,7.71,0,0,1,112.93,52.9ZM59.17,30a30.59,30.59,0,0,1-11.33-6.4,13.1,13.1,0,0,1-3.91-5.25,4.31,4.31,0,0,1,.12-3.69,3.48,3.48,0,0,1,2.31-1.38,4.28,4.28,0,0,1,.89-.07,10.53,10.53,0,0,1,4.24,1.22,38,38,0,0,1,10.37,7.71,25.18,25.18,0,0,1,1.84,2.26,27.49,27.49,0,0,0,3.21,3.75,3.12,3.12,0,0,1-2.33,2.26A9.34,9.34,0,0,1,59.17,30Zm5.31,56.09.08-.32a24.05,24.05,0,0,1,4.66-8.49l.18-.22A4.55,4.55,0,0,1,69,78.91a34.67,34.67,0,0,1-2.88,6,20,20,0,0,1-2,2.73A11.84,11.84,0,0,1,64.48,86.13ZM62,105.73a11.3,11.3,0,0,1-.77,7.91l-.11.23a1.23,1.23,0,0,1-.39-.14c-1.19-.65-1.91-2.22-2.21-4.78a15.15,15.15,0,0,1,.09-5,4.42,4.42,0,0,1,.76-1.86,1.83,1.83,0,0,1,.52-.49C60.34,101.74,61.39,103.39,62,105.73Z"/></g></g></g></svg>