<svg xmlns="http://www.w3.org/2000/svg" viewBox="0 0 165.18 219.78"><defs><style>.cls-1{isolation:isolate;}.cls-2{fill:#fff0f0;opacity:0.25;mix-blend-mode:multiply;}.cls-3{fill:#ddd;}</style></defs><title>Asset 6</title><g class="cls-1"><g id="Layer_2" data-name="Layer 2"><g id="Shadow"><path class="cls-2" d="M41.66,114C19.21,125.49,2,148.15.14,173.32c-.73,10,1.28,20.84,8.53,27.73,4.52,4.31,10.61,6.6,16.69,8,18.54,4.23,38.05,1,56.79,4.19,13.69,2.31,27.19,8,41,6.21,20.9-2.71,36.26-22.61,40.42-43.27C178.21,103.21,91.62,88.33,41.66,114Z"/></g><g id="Object"><path class="cls-3" d="M38.39,160.34A45.76,45.76,0,0,0,47.51,165c4.26,1.42,13.55,1.79,19.24-1.28a10.17,10.17,0,0,0,3.11-2.48,90.57,90.57,0,0,0,4.23,23.38c1.47,4.55,4,11.12,8.89,15.81a1.41,1.41,0,0,0,2,0,1.12,1.12,0,0,0,.21-.29,1.4,1.4,0,0,0-.26-1.71c-3.42-3.27-5.94-7.78-8.14-14.62a87,87,0,0,1-2.36-9,4,4,0,0,0,.93.95c7.06,5.2,15.11-16.79,15.43-21.07a.8.8,0,0,0-.09-.53c-.24-.33-.77-.11-1.1.14C87.13,156.1,74.88,165.75,73.9,172a88,88,0,0,1-1.23-11.24,107.89,107.89,0,0,1,.25-12.45c1,.92,2.62,1.68,5.51,1.23,7.09-1.11,13.53-5.74,17.68-9.44,6-5.35,10.75-12,15.07-18.36,2.33-3.43,4.7-7,6.78-10.78a60.47,60.47,0,0,0,4-8.77,2.43,2.43,0,0,0-3.18-3.39A71.38,71.38,0,0,0,99,108.07a75.59,75.59,0,0,0-24.51,26.65q.56-3.9,1.14-7.75c.79-5.24,1.61-10.65,2.18-16a123.33,123.33,0,0,0,.74-16.7,2.69,2.69,0,0,0,.38.12c2.09.56,4.5-.79,6.28-3.53q3.16-4.84,6-9.88a155.82,155.82,0,0,0,16.13-43.51,1.38,1.38,0,0,0-.19-1.05,2.69,2.69,0,0,0-2.19-1.3,5.86,5.86,0,0,0-4.35,2.34A125.61,125.61,0,0,0,81.25,70.5c-.38.94-.82,2-1.3,3.11-1,2.25-2,4.76-2.86,7.27A54.52,54.52,0,0,0,69.5,61.33c-5.91-9.11-14.92-16-22.87-22.07A1.41,1.41,0,0,0,44.4,40c-5.1,19.57,5.72,42.32,24.12,50.72,2,.91,4.55,1.83,7.06,1.22a116.16,116.16,0,0,1-.63,18.7c-.42,3.91-1,7.87-1.55,11.77-.1-.24-.21-.49-.32-.78-1.32-3.38-2-7-3.58-10.27-2.73-5.45-8-9.3-13.61-11.57s-11.74-3.15-17.77-4L23,93.64c-1.09,2.71.5,5.74,2.33,8,4.37,5.43,10.33,9.36,16.52,12.58a105.6,105.6,0,0,0,23.88,8.94A34.5,34.5,0,0,0,72,124.49a8,8,0,0,0,1.12,0c-.1.69-.21,1.38-.31,2.07a247.39,247.39,0,0,0-2.89,25,26.93,26.93,0,0,0-4.53-5.32,27.44,27.44,0,0,0-12.69-6.56c-10.93-2.3-21.68,1.73-28.77,5.51a4,4,0,0,0-2.21,2.35c-.27,1-.07,2.63,2.42,4.15Zm44.4-71c-1.16,1.78-2.48,2.52-3.19,2.34a.85.85,0,0,1-.31-.21,311.47,311.47,0,0,1,18.83-40l.38-.69c2.23-4,4.52-8.07,5.45-12.56l.27-.14A153.24,153.24,0,0,1,82.79,89.31Zm-.23-14.59c.49-1.14.94-2.22,1.32-3.18a122.93,122.93,0,0,1,18.83-32.3,5,5,0,0,1,.38-.41c-1,4.08-3.13,7.88-5.2,11.57l-.39.69A312.89,312.89,0,0,0,78.81,90.73a5.8,5.8,0,0,1-.36-1.82C78.21,84.94,80.62,79.27,82.56,74.72ZM67.12,62.87a51.9,51.9,0,0,1,7.21,18.58c-5.76-9.84-11.44-19.82-16.95-29.8A58.87,58.87,0,0,1,67.12,62.87ZM55.78,50.21c6.11,11.12,12.45,22.26,18.88,33.2.18,1.14.34,2.29.48,3.48A90.43,90.43,0,0,0,67,74.34c-1-1.4-2-2.77-3-4.12-2-2.87-3.79-6-5.5-9C57.3,59.17,56.07,57,54.77,55c-2.51-4-5.39-7.79-8.22-11.49,0-.21.07-.42.11-.63C49.74,45.21,52.84,47.63,55.78,50.21Zm-9.39-5.79c2.68,3.52,5.4,7.14,7.78,10.92,1.3,2,2.52,4.19,3.7,6.26,1.73,3,3.51,6.13,5.53,9,.95,1.35,2,2.72,3,4.13,3.38,4.6,6.84,9.34,9,14.3l-.05,0a3.93,3.93,0,0,1-1.36.23,95.28,95.28,0,0,1-11.19-9.45,61.89,61.89,0,0,1-10-12.41c-3-5-4.95-10.6-6.81-16.07A38.56,38.56,0,0,1,46.39,44.42Zm-.22,9.68a75.15,75.15,0,0,0,6,13.7A62.47,62.47,0,0,0,62.27,80.36a97.66,97.66,0,0,0,10.25,8.8,13.82,13.82,0,0,1-2.82-1C56.59,82.18,47.61,68.41,46.17,54.1Zm65.48,50.29c.61-.27,1.23-.52,1.86-.76-1.7,2.4-3.14,4.78-4.53,7.1a78.92,78.92,0,0,1-6.86,10.2c-5.83,7.07-11.85,14.38-18.79,20.6a11.91,11.91,0,0,1-9.1,3.17,7.72,7.72,0,0,1,0-1.08A165.07,165.07,0,0,1,111.65,104.39Zm-2.82,15.78c-4.21,6.2-8.82,12.69-14.6,17.83-3.87,3.45-9.83,7.76-16.23,8.76-1.68.26-2.79,0-3.32-.69a2.1,2.1,0,0,1-.3-.64,12.65,12.65,0,0,0,9.43-3.37c7-6.26,13-13.59,18.86-20.68a79.55,79.55,0,0,0,6.92-10.28c1.55-2.6,3.16-5.27,5.12-7.94,1.48-.55,3-1.06,4.47-1.5C116.75,108.28,112.9,114.19,108.83,120.17Zm-8.32-9.74a71.91,71.91,0,0,1,8.24-4.71A166,166,0,0,0,74.47,142,17.74,17.74,0,0,1,76,137.93c.37-.72.74-1.43,1.13-2.13A72.8,72.8,0,0,1,100.51,110.43ZM34.93,143.81A48.46,48.46,0,0,1,68.4,158.23a5.13,5.13,0,0,1-.63,1.05c-2.14-1.14-4.23-2.46-6.24-3.75-3.67-2.34-7.47-4.75-11.67-6.15-9.07-3-16.79-3.78-23.5-2.29a55,55,0,0,1,8.31-3.41A.32.32,0,0,0,34.93,143.81Zm-10.27,4.45c7-2.06,15.18-1.47,25,1.79,4.12,1.37,7.87,3.77,11.5,6.08,1.82,1.16,3.69,2.35,5.6,3.41-5.95.6-11.92-.67-17-2A138.7,138.7,0,0,1,24.66,148.26Zm40.75,13c-4.8,2.59-13.14,2.37-17,1.08a43.42,43.42,0,0,1-8.55-4.38l-12.63-7.68a139,139,0,0,0,22.3,8c5.19,1.37,11.25,2.63,17.33,2A8,8,0,0,1,65.41,161.22ZM52.08,142.44a24.2,24.2,0,0,1,11.35,5.87c3.87,3.57,5.83,7,5.26,9.2a49.31,49.31,0,0,0-32.21-14.35A33.62,33.62,0,0,1,52.08,142.44Z"/><path class="cls-3" d="M75.76,48a6.6,6.6,0,0,0,.53-1.29,8.33,8.33,0,0,0-2-7.44,7,7,0,0,0-3.74-2.52,5.14,5.14,0,0,0-4.79,1.59c-2,2-3.19,5.22-2.72,7.56a7.08,7.08,0,0,0,6.26,5.6A6.92,6.92,0,0,0,75.76,48Zm-9.89-2.66a6.48,6.48,0,0,1,1.92-5A2.49,2.49,0,0,1,70,39.54a4.25,4.25,0,0,1,2.18,1.57A5.7,5.7,0,0,1,73.56,46a4,4,0,0,1-4,2.73A4.29,4.29,0,0,1,65.87,45.37Z"/><path class="cls-3" d="M84.38,35.91a6.13,6.13,0,0,0,.77,2.23A5.77,5.77,0,0,0,92,40.43a6.45,6.45,0,0,0,3.34-3,7,7,0,0,0,.84-2.74,5.64,5.64,0,0,0-.31-2.46,5.44,5.44,0,0,0-4-3.25A6.35,6.35,0,0,0,86,30.36,6.07,6.07,0,0,0,84.38,35.91Zm3.21.78a3.13,3.13,0,0,1-.41-1.22,3.4,3.4,0,0,1,.74-3.06,3.63,3.63,0,0,1,3.32-.6,2.62,2.62,0,0,1,1.94,1.48,2.73,2.73,0,0,1,.13,1.22A3.86,3.86,0,0,1,91,37.77,2.93,2.93,0,0,1,87.59,36.69Z"/><path class="cls-3" d="M73.44,24.19a3.74,3.74,0,0,0,1.72-1.49,2.86,2.86,0,0,0-.34-2.84A6.08,6.08,0,0,0,72.49,18c-3.49-1.77-4.87,3.71-2.87,5.86a2.74,2.74,0,0,0,1.12.75A3.66,3.66,0,0,0,73.44,24.19Z"/><path class="cls-3" d="M80.08,4a3.19,3.19,0,0,0,3,1.59,2.57,2.57,0,0,0,2.06-1.13,2.37,2.37,0,0,0,.3-.93A3.22,3.22,0,0,0,84.09.4C81.9-1,78.88,1.59,80.08,4Z"/></g></g></g></svg>